<svg xmlns="http://www.w3.org/2000/svg" version="1.1" xmlns:xlink="http://www.w3.org/1999/xlink" xmlns:svgjs="http://svgjs.dev/svgjs" width="1000" height="1000" viewBox="0 0 1000 1000"><rect width="1000" height="1000" fill="#000000"></rect><g transform="matrix(0.3798155181768855,0,0,0.3798155181768855,310.15611594494,150.28341586577437)"><svg viewBox="0 0 134 247" data-background-color="#ffffff" preserveAspectRatio="xMidYMid meet" height="1843" width="1000" xmlns="http://www.w3.org/2000/svg" xmlns:xlink="http://www.w3.org/1999/xlink"><g id="tight-bounds" transform="matrix(1,0,0,1,-0.022535294277531648,-0.10000531263753487)"><svg viewBox="0 0 134.0450704225352 247.2" height="247.2" width="134.0450704225352"><g><svg viewBox="0 0 134.0450704225352 247.2" height="247.2" width="134.0450704225352"><g><svg viewBox="0 0 134.0450704225352 247.2" height="247.2" width="134.0450704225352"><g id="textblocktransform"><svg viewBox="0 0 134.0450704225352 247.2" height="247.2" width="134.0450704225352" id="textblock"><g><svg viewBox="0 0 134.0450704225352 247.2" height="247.2" width="134.0450704225352"><g transform="matrix(1,0,0,1,0,0)"><svg width="134.0450704225352" viewBox="1.149999976158142 -34.900001525878906 19.25 35.5" height="247.2" data-palette-color="#ed1703"><g class="wordmark-text-0" data-fill-palette-color="primary" id="text-0"><path d="M4.95-34.9L20.4-34.9 20.4-8.6Q20.4-4.25 17.85-1.83 15.3 0.6 10.75 0.6L10.75 0.6Q6.4 0.6 4.1-1.68 1.8-3.95 1.15-7.9L1.15-7.9 5.95-9Q6.35-6.6 7.43-5.35 8.5-4.1 10.75-4.1L10.75-4.1Q12.8-4.1 13.95-5.3 15.1-6.5 15.1-9.2L15.1-9.2 15.1-30.45 4.95-30.45 4.95-34.9Z" fill="#ffffff" data-fill-palette-color="primary"></path></g></svg></g></svg></g></svg></g></svg></g></svg></g><defs></defs></svg><rect width="134.0450704225352" height="247.2" fill="none" stroke="none" visibility="hidden"></rect></g></svg></g></svg>